<mxfile host="app.diagrams.net" modified="2023-10-08T19:33:05.072Z" agent="Mozilla/5.0 (Macintosh; Intel Mac OS X 10_15_7) AppleWebKit/537.36 (KHTML, like Gecko) Chrome/117.0.0.0 Safari/537.36" etag="dumZ7cu3lWzxI2c9int8" version="21.3.2" type="device">
  <diagram name="Page-1" id="RQPOmkSOHgMgpztkuYrJ">
    <mxGraphModel dx="2621" dy="1013" grid="1" gridSize="10" guides="1" tooltips="1" connect="1" arrows="1" fold="1" page="1" pageScale="1" pageWidth="827" pageHeight="1169" math="0" shadow="0">
      <root>
        <mxCell id="0" />
        <mxCell id="1" parent="0" />
        <mxCell id="lMnPVMbAywraSohQJgNa-51" value="" style="rounded=0;whiteSpace=wrap;html=1;shadow=1;fillColor=#ffe6cc;strokeColor=#d79b00;" vertex="1" parent="1">
          <mxGeometry x="380" y="170" width="240" height="820" as="geometry" />
        </mxCell>
        <mxCell id="lMnPVMbAywraSohQJgNa-46" value="" style="rounded=0;whiteSpace=wrap;html=1;shadow=1;fillColor=#ffe6cc;strokeColor=#d79b00;" vertex="1" parent="1">
          <mxGeometry x="110" y="170" width="240" height="820" as="geometry" />
        </mxCell>
        <mxCell id="lMnPVMbAywraSohQJgNa-5" style="edgeStyle=orthogonalEdgeStyle;rounded=0;orthogonalLoop=1;jettySize=auto;html=1;" edge="1" parent="1" source="lMnPVMbAywraSohQJgNa-1" target="lMnPVMbAywraSohQJgNa-4">
          <mxGeometry relative="1" as="geometry" />
        </mxCell>
        <mxCell id="lMnPVMbAywraSohQJgNa-1" value="product page" style="whiteSpace=wrap;html=1;aspect=fixed;" vertex="1" parent="1">
          <mxGeometry x="190" y="290" width="80" height="80" as="geometry" />
        </mxCell>
        <mxCell id="lMnPVMbAywraSohQJgNa-3" style="edgeStyle=orthogonalEdgeStyle;rounded=0;orthogonalLoop=1;jettySize=auto;html=1;entryX=0;entryY=0.5;entryDx=0;entryDy=0;" edge="1" parent="1" source="lMnPVMbAywraSohQJgNa-2" target="lMnPVMbAywraSohQJgNa-1">
          <mxGeometry relative="1" as="geometry" />
        </mxCell>
        <mxCell id="lMnPVMbAywraSohQJgNa-12" style="edgeStyle=orthogonalEdgeStyle;rounded=0;orthogonalLoop=1;jettySize=auto;html=1;entryX=0;entryY=0.25;entryDx=0;entryDy=0;" edge="1" parent="1" source="lMnPVMbAywraSohQJgNa-2" target="lMnPVMbAywraSohQJgNa-11">
          <mxGeometry relative="1" as="geometry" />
        </mxCell>
        <mxCell id="lMnPVMbAywraSohQJgNa-15" style="edgeStyle=orthogonalEdgeStyle;rounded=0;orthogonalLoop=1;jettySize=auto;html=1;entryX=0;entryY=0.5;entryDx=0;entryDy=0;" edge="1" parent="1" source="lMnPVMbAywraSohQJgNa-2" target="lMnPVMbAywraSohQJgNa-14">
          <mxGeometry relative="1" as="geometry" />
        </mxCell>
        <mxCell id="lMnPVMbAywraSohQJgNa-25" style="edgeStyle=orthogonalEdgeStyle;rounded=0;orthogonalLoop=1;jettySize=auto;html=1;entryX=0;entryY=0.5;entryDx=0;entryDy=0;" edge="1" parent="1" source="lMnPVMbAywraSohQJgNa-2" target="lMnPVMbAywraSohQJgNa-24">
          <mxGeometry relative="1" as="geometry" />
        </mxCell>
        <mxCell id="lMnPVMbAywraSohQJgNa-49" style="edgeStyle=orthogonalEdgeStyle;rounded=0;orthogonalLoop=1;jettySize=auto;html=1;entryX=0;entryY=0.75;entryDx=0;entryDy=0;" edge="1" parent="1" source="lMnPVMbAywraSohQJgNa-2" target="lMnPVMbAywraSohQJgNa-48">
          <mxGeometry relative="1" as="geometry" />
        </mxCell>
        <mxCell id="lMnPVMbAywraSohQJgNa-2" value="Buyer" style="shape=umlActor;verticalLabelPosition=bottom;verticalAlign=top;html=1;outlineConnect=0;" vertex="1" parent="1">
          <mxGeometry x="-110" y="520" width="30" height="60" as="geometry" />
        </mxCell>
        <mxCell id="lMnPVMbAywraSohQJgNa-7" value="Find product" style="edgeStyle=orthogonalEdgeStyle;rounded=0;orthogonalLoop=1;jettySize=auto;html=1;" edge="1" parent="1" source="lMnPVMbAywraSohQJgNa-4" target="lMnPVMbAywraSohQJgNa-6">
          <mxGeometry relative="1" as="geometry" />
        </mxCell>
        <mxCell id="lMnPVMbAywraSohQJgNa-4" value="/product end point" style="whiteSpace=wrap;html=1;aspect=fixed;" vertex="1" parent="1">
          <mxGeometry x="440" y="290" width="80" height="80" as="geometry" />
        </mxCell>
        <mxCell id="lMnPVMbAywraSohQJgNa-21" style="edgeStyle=orthogonalEdgeStyle;rounded=0;orthogonalLoop=1;jettySize=auto;html=1;" edge="1" parent="1" source="lMnPVMbAywraSohQJgNa-6">
          <mxGeometry relative="1" as="geometry">
            <mxPoint x="905" y="560" as="targetPoint" />
          </mxGeometry>
        </mxCell>
        <mxCell id="lMnPVMbAywraSohQJgNa-6" value="database" style="shape=cylinder3;whiteSpace=wrap;html=1;boundedLbl=1;backgroundOutline=1;size=15;" vertex="1" parent="1">
          <mxGeometry x="700" y="520" width="60" height="80" as="geometry" />
        </mxCell>
        <mxCell id="lMnPVMbAywraSohQJgNa-13" style="edgeStyle=orthogonalEdgeStyle;rounded=0;orthogonalLoop=1;jettySize=auto;html=1;entryX=0.5;entryY=1;entryDx=0;entryDy=0;" edge="1" parent="1" source="lMnPVMbAywraSohQJgNa-11" target="lMnPVMbAywraSohQJgNa-4">
          <mxGeometry relative="1" as="geometry" />
        </mxCell>
        <mxCell id="lMnPVMbAywraSohQJgNa-11" value="Search page" style="whiteSpace=wrap;html=1;aspect=fixed;" vertex="1" parent="1">
          <mxGeometry x="190" y="430" width="80" height="80" as="geometry" />
        </mxCell>
        <mxCell id="lMnPVMbAywraSohQJgNa-16" style="edgeStyle=orthogonalEdgeStyle;rounded=0;orthogonalLoop=1;jettySize=auto;html=1;entryX=0.75;entryY=1;entryDx=0;entryDy=0;" edge="1" parent="1" source="lMnPVMbAywraSohQJgNa-14" target="lMnPVMbAywraSohQJgNa-4">
          <mxGeometry relative="1" as="geometry" />
        </mxCell>
        <mxCell id="lMnPVMbAywraSohQJgNa-14" value="category page" style="whiteSpace=wrap;html=1;aspect=fixed;" vertex="1" parent="1">
          <mxGeometry x="190" y="560" width="80" height="80" as="geometry" />
        </mxCell>
        <mxCell id="lMnPVMbAywraSohQJgNa-17" value="Song" style="swimlane;fontStyle=0;childLayout=stackLayout;horizontal=1;startSize=30;horizontalStack=0;resizeParent=1;resizeParentMax=0;resizeLast=0;collapsible=1;marginBottom=0;whiteSpace=wrap;html=1;" vertex="1" parent="1">
          <mxGeometry x="910" y="510" width="140" height="110" as="geometry" />
        </mxCell>
        <mxCell id="lMnPVMbAywraSohQJgNa-20" value="- ID&lt;br&gt;- name&lt;br&gt;- Price&lt;br&gt;- categoryID" style="text;strokeColor=none;fillColor=none;align=left;verticalAlign=middle;spacingLeft=4;spacingRight=4;overflow=hidden;points=[[0,0.5],[1,0.5]];portConstraint=eastwest;rotatable=0;whiteSpace=wrap;html=1;" vertex="1" parent="lMnPVMbAywraSohQJgNa-17">
          <mxGeometry y="30" width="140" height="80" as="geometry" />
        </mxCell>
        <mxCell id="lMnPVMbAywraSohQJgNa-22" value="Category" style="swimlane;whiteSpace=wrap;html=1;" vertex="1" parent="1">
          <mxGeometry x="910" y="400" width="120" height="80" as="geometry" />
        </mxCell>
        <mxCell id="lMnPVMbAywraSohQJgNa-23" value="&lt;div style=&quot;text-align: left;&quot;&gt;&lt;span style=&quot;background-color: initial;&quot;&gt;- ID&lt;/span&gt;&lt;/div&gt;&lt;div style=&quot;text-align: left;&quot;&gt;&lt;span style=&quot;background-color: initial;&quot;&gt;- name&lt;/span&gt;&lt;/div&gt;" style="text;html=1;align=center;verticalAlign=middle;resizable=0;points=[];autosize=1;strokeColor=none;fillColor=none;" vertex="1" parent="lMnPVMbAywraSohQJgNa-22">
          <mxGeometry y="30" width="60" height="40" as="geometry" />
        </mxCell>
        <mxCell id="lMnPVMbAywraSohQJgNa-26" style="edgeStyle=orthogonalEdgeStyle;rounded=0;orthogonalLoop=1;jettySize=auto;html=1;entryX=0.25;entryY=1;entryDx=0;entryDy=0;" edge="1" parent="1" source="lMnPVMbAywraSohQJgNa-24" target="lMnPVMbAywraSohQJgNa-4">
          <mxGeometry relative="1" as="geometry">
            <mxPoint x="460" y="380" as="targetPoint" />
            <Array as="points">
              <mxPoint x="230" y="680" />
              <mxPoint x="460" y="680" />
            </Array>
          </mxGeometry>
        </mxCell>
        <mxCell id="lMnPVMbAywraSohQJgNa-54" style="edgeStyle=orthogonalEdgeStyle;rounded=0;orthogonalLoop=1;jettySize=auto;html=1;" edge="1" parent="1" source="lMnPVMbAywraSohQJgNa-24" target="lMnPVMbAywraSohQJgNa-53">
          <mxGeometry relative="1" as="geometry" />
        </mxCell>
        <mxCell id="lMnPVMbAywraSohQJgNa-24" value="Checkout page" style="whiteSpace=wrap;html=1;aspect=fixed;" vertex="1" parent="1">
          <mxGeometry x="190" y="700" width="80" height="80" as="geometry" />
        </mxCell>
        <mxCell id="lMnPVMbAywraSohQJgNa-34" value="Order" style="swimlane;fontStyle=0;childLayout=stackLayout;horizontal=1;startSize=30;horizontalStack=0;resizeParent=1;resizeParentMax=0;resizeLast=0;collapsible=1;marginBottom=0;whiteSpace=wrap;html=1;" vertex="1" parent="1">
          <mxGeometry x="910" y="640" width="140" height="120" as="geometry" />
        </mxCell>
        <mxCell id="lMnPVMbAywraSohQJgNa-35" value="Products" style="text;strokeColor=none;fillColor=none;align=left;verticalAlign=middle;spacingLeft=4;spacingRight=4;overflow=hidden;points=[[0,0.5],[1,0.5]];portConstraint=eastwest;rotatable=0;whiteSpace=wrap;html=1;" vertex="1" parent="lMnPVMbAywraSohQJgNa-34">
          <mxGeometry y="30" width="140" height="30" as="geometry" />
        </mxCell>
        <mxCell id="lMnPVMbAywraSohQJgNa-36" value="Address" style="text;strokeColor=none;fillColor=none;align=left;verticalAlign=middle;spacingLeft=4;spacingRight=4;overflow=hidden;points=[[0,0.5],[1,0.5]];portConstraint=eastwest;rotatable=0;whiteSpace=wrap;html=1;" vertex="1" parent="lMnPVMbAywraSohQJgNa-34">
          <mxGeometry y="60" width="140" height="30" as="geometry" />
        </mxCell>
        <mxCell id="lMnPVMbAywraSohQJgNa-37" value="IsPaid" style="text;strokeColor=none;fillColor=none;align=left;verticalAlign=middle;spacingLeft=4;spacingRight=4;overflow=hidden;points=[[0,0.5],[1,0.5]];portConstraint=eastwest;rotatable=0;whiteSpace=wrap;html=1;" vertex="1" parent="lMnPVMbAywraSohQJgNa-34">
          <mxGeometry y="90" width="140" height="30" as="geometry" />
        </mxCell>
        <mxCell id="lMnPVMbAywraSohQJgNa-47" value="&lt;b&gt;&lt;font style=&quot;font-size: 19px;&quot;&gt;React Frontend&lt;/font&gt;&lt;/b&gt;" style="text;html=1;strokeColor=none;fillColor=none;align=center;verticalAlign=middle;whiteSpace=wrap;rounded=0;" vertex="1" parent="1">
          <mxGeometry x="170" y="220" width="120" height="50" as="geometry" />
        </mxCell>
        <mxCell id="lMnPVMbAywraSohQJgNa-50" style="edgeStyle=orthogonalEdgeStyle;rounded=0;orthogonalLoop=1;jettySize=auto;html=1;entryX=0.1;entryY=1.025;entryDx=0;entryDy=0;entryPerimeter=0;" edge="1" parent="1" source="lMnPVMbAywraSohQJgNa-48" target="lMnPVMbAywraSohQJgNa-4">
          <mxGeometry relative="1" as="geometry" />
        </mxCell>
        <mxCell id="lMnPVMbAywraSohQJgNa-48" value="Cart (store data in browser)" style="whiteSpace=wrap;html=1;aspect=fixed;" vertex="1" parent="1">
          <mxGeometry x="190" y="820" width="80" height="80" as="geometry" />
        </mxCell>
        <mxCell id="lMnPVMbAywraSohQJgNa-52" value="&lt;b&gt;&lt;font style=&quot;font-size: 19px;&quot;&gt;Backend&lt;/font&gt;&lt;/b&gt;" style="text;html=1;strokeColor=none;fillColor=none;align=center;verticalAlign=middle;whiteSpace=wrap;rounded=0;" vertex="1" parent="1">
          <mxGeometry x="430" y="220" width="120" height="50" as="geometry" />
        </mxCell>
        <mxCell id="lMnPVMbAywraSohQJgNa-55" value="store order" style="edgeStyle=orthogonalEdgeStyle;rounded=0;orthogonalLoop=1;jettySize=auto;html=1;" edge="1" parent="1" source="lMnPVMbAywraSohQJgNa-53" target="lMnPVMbAywraSohQJgNa-6">
          <mxGeometry relative="1" as="geometry">
            <mxPoint x="640" y="740" as="targetPoint" />
          </mxGeometry>
        </mxCell>
        <mxCell id="lMnPVMbAywraSohQJgNa-53" value="/checkout" style="whiteSpace=wrap;html=1;aspect=fixed;" vertex="1" parent="1">
          <mxGeometry x="470" y="700" width="80" height="80" as="geometry" />
        </mxCell>
      </root>
    </mxGraphModel>
  </diagram>
</mxfile>
